<svg version="1.1" id="Layer_1" xmlns="http://www.w3.org/2000/svg" x="0" y="0" viewBox="0 0 576.7 572.2" style="enable-background:new 0 0 576.7 572.2" xml:space="preserve"><style>.st0{fill:#9aa0a6}</style><path class="st0" d="M242.1 469.8c-46 .2-91.1-13.2-129.5-38.7S44.2 369.5 26.4 327C8.7 284.5 3.9 237.7 12.8 192.5s30.9-86.7 63.4-119.3c32.5-32.6 73.9-54.9 119.1-63.9s92-4.5 134.5 13.1 78.9 47.4 104.5 85.7c25.6 38.3 39.2 83.3 39.2 129.4 0 61.5-24.3 120.4-67.7 163.9s-102.3 68.2-163.7 68.4zm0-420c-37.2-.2-73.6 10.6-104.6 31.1s-55.2 49.7-69.6 84-18.3 72-11.2 108.5 24.9 70 51.1 96.4c26.2 26.4 59.6 44.4 96.1 51.7s74.2 3.7 108.6-10.5 63.7-38.2 84.4-69.1 31.7-67.2 31.7-104.4c.1-49.6-19.5-97.2-54.5-132.4-34.9-35.2-82.4-55.1-132-55.3z"/><path class="st0" d="M539 565 384.1 411l31.7-31.7 154.8 153.9L539 565z"/></svg>